<svg width="40" height="40" viewBox="0 0 40 40" fill="none" xmlns="http://www.w3.org/2000/svg">
<path fill-rule="evenodd" clip-rule="evenodd" d="M11.2329 0.0440877C10.6536 0.0831961 9.6908 0.161413 9.09589 0.231808C8.50881 0.302203 7.67906 0.42735 7.26419 0.521211C6.84149 0.615071 6.27006 0.755861 5.98826 0.8419C5.70646 0.927938 5.16634 1.14695 4.77495 1.33467C4.38356 1.52239 3.84344 1.84308 3.56164 2.06208C3.27984 2.27327 2.84149 2.67217 2.58317 2.94593C2.32485 3.21969 1.9726 3.65771 1.80039 3.91582C1.63601 4.17394 1.35421 4.69799 1.182 5.08908C1.01761 5.48016 0.782779 6.18411 0.657534 6.65341C0.540117 7.12271 0.391389 7.88142 0.320939 8.33508C0.258317 8.78873 0.156556 9.64912 0.101761 10.2514C0.0234834 11.0648 0 13.5756 0 19.9894C0 26.4032 0.0234834 28.9139 0.101761 29.7274C0.156556 30.3297 0.258317 31.19 0.320939 31.6437C0.391389 32.0974 0.540117 32.8482 0.657534 33.3254C0.782779 33.8025 1.01761 34.5064 1.182 34.8897C1.35421 35.273 1.62818 35.8048 1.80039 36.063C1.96477 36.3211 2.40313 36.8295 2.77886 37.1971C3.14677 37.5725 3.65558 38.0106 3.91389 38.1748C4.17221 38.3469 4.69667 38.6206 5.08806 38.7927C5.47945 38.957 6.19961 39.1995 6.69276 39.3246C7.18591 39.4497 8.12524 39.614 8.76712 39.7C9.41683 39.7861 10.6771 39.8878 11.5851 39.9425C12.681 39.9973 15.8513 40.0129 21.135 39.9894C26.2231 39.966 29.3464 39.9269 29.9022 39.8643C30.3796 39.8174 31.1468 39.7235 31.6243 39.6531C32.1018 39.5827 32.8689 39.4341 33.3464 39.309C33.8239 39.1916 34.5284 38.957 34.9119 38.7849C35.2955 38.6206 35.8278 38.3469 36.0861 38.1748C36.3444 38.0106 36.8532 37.5725 37.2211 37.1971C37.5969 36.8295 38.0352 36.3211 38.1996 36.063C38.3718 35.8048 38.6458 35.273 38.818 34.8897C38.9824 34.5064 39.2172 33.8025 39.3425 33.3254C39.4599 32.8482 39.6086 32.0974 39.6791 31.6437C39.7417 31.19 39.8434 30.3297 39.8982 29.7274C39.9765 28.9139 40 26.4032 40 19.9894C40 13.5756 39.9765 11.0648 39.8982 10.2514C39.8434 9.64912 39.7417 8.78873 39.6791 8.33508C39.6086 7.88142 39.4599 7.12271 39.3425 6.65341C39.2172 6.18411 38.9824 5.48016 38.818 5.08908C38.6458 4.69799 38.364 4.17394 38.1996 3.91582C38.0274 3.65771 37.6204 3.17276 37.2994 2.82861C36.9785 2.49228 36.4697 2.05426 36.1644 1.85872C35.8591 1.65536 35.2955 1.35813 34.9119 1.18605C34.5284 1.0218 33.8239 0.779326 33.3464 0.662001C32.8689 0.544676 32.1018 0.388242 31.6243 0.325668C31.1468 0.255273 30.3796 0.161413 29.9022 0.114483C29.3307 0.0519094 26.1996 0.012801 20.6654 0.00497928C16.0626 -0.0106641 11.8121 0.012801 11.2329 0.0440877ZM7.09926 12.7468C7.20102 12.653 7.3341 12.5591 7.39672 12.5357C7.45934 12.5122 8.3204 12.4887 9.31453 12.4887C10.8801 12.4809 11.1462 12.4965 11.3811 12.6217C11.5298 12.6921 11.7177 12.8407 11.7959 12.9502C11.8742 13.0597 12.1247 13.6385 12.3595 14.2408C12.5865 14.8431 12.9466 15.7034 13.1423 16.1571C13.3458 16.6108 13.7216 17.3616 13.9877 17.8388C14.246 18.3159 14.6922 19.0511 14.974 19.4813C15.2636 19.9115 15.7333 20.4981 16.0308 20.7954C16.3204 21.0848 16.6335 21.3429 16.7353 21.3663C16.8292 21.3898 17.0014 21.3898 17.1267 21.3663C17.291 21.3272 17.3537 21.249 17.4241 21.03C17.4789 20.8345 17.4946 19.802 17.4789 17.9952C17.4554 15.6878 17.4241 15.2029 17.3145 14.9056C17.2441 14.7101 17.0092 14.3034 16.7901 14.0061C16.5709 13.7089 16.3752 13.3882 16.3517 13.3022C16.3204 13.2161 16.3517 13.0441 16.4065 12.9111C16.4691 12.7859 16.6022 12.6373 16.7118 12.5826C16.8605 12.5122 17.5494 12.4809 19.3889 12.4809C20.8683 12.4809 21.9564 12.5122 22.0738 12.5591C22.1834 12.606 22.3243 12.7625 22.3869 12.9111C22.4887 13.1379 22.5044 13.7167 22.5044 16.3917C22.5044 18.4958 22.5357 19.669 22.5905 19.8176C22.6374 19.935 22.7157 20.0523 22.7627 20.0836C22.8175 20.1149 22.9427 20.1462 23.0523 20.1462C23.1619 20.1462 23.3576 20.0836 23.4828 20.0054C23.6081 19.9193 23.9134 19.669 24.1482 19.4344C24.383 19.1997 24.7901 18.7304 25.0484 18.3863C25.3067 18.0421 25.7294 17.4242 25.9877 17.0175C26.246 16.6108 26.8409 15.5001 27.3184 14.5536C28.156 12.8798 28.1873 12.8251 28.5317 12.653C28.8762 12.4809 28.9388 12.4731 32.6961 12.52L32.8918 12.7547C33.064 12.958 33.0875 13.0362 33.0406 13.3256C33.0171 13.5055 32.8918 13.9123 32.7588 14.2251C32.6335 14.5302 32.2734 15.2263 31.9681 15.766C31.6629 16.3057 30.8331 17.6119 30.1286 18.6835C29.4241 19.7473 28.8214 20.6937 28.7979 20.7954C28.7744 20.8892 28.8136 21.1004 28.8918 21.2725C28.9779 21.4446 29.3145 21.8435 29.6511 22.172C29.9877 22.5005 30.6844 23.2435 31.1932 23.8224C31.7098 24.4012 32.3361 25.1599 32.6022 25.504C32.8605 25.8482 33.1893 26.3566 33.3302 26.6382C33.5102 26.998 33.5807 27.2561 33.5807 27.522C33.5807 27.8349 33.5494 27.9287 33.385 28.0539C33.2754 28.1399 33.064 28.2416 32.9153 28.2885C32.7666 28.3276 31.9447 28.3589 31.0914 28.3589C30.2147 28.3589 29.3928 28.3198 29.1815 28.2729C28.837 28.1869 28.6648 28.0461 27.0836 26.4348C26.1364 25.4805 25.1658 24.5498 24.931 24.362C24.6961 24.1821 24.2891 23.9319 24.0308 23.8145C23.7646 23.6816 23.4202 23.5877 23.248 23.5877C23.0523 23.5799 22.8644 23.6346 22.5435 23.8849L22.4652 27.7488L22.246 27.9366C22.1286 28.0382 21.886 28.1634 21.7059 28.2181C21.5181 28.2651 20.931 28.3042 20.3909 28.3042C19.7098 28.2964 19.1932 28.2494 18.7079 28.1399C18.3243 28.0539 17.6668 27.8583 17.2597 27.6941C16.8527 27.5377 16.2186 27.2404 15.8507 27.0292C15.4828 26.8181 14.9349 26.4661 14.6374 26.2393C14.34 26.0124 13.8703 25.637 13.5963 25.3945C13.3302 25.152 12.8527 24.6593 12.5396 24.2917C12.2265 23.924 11.7881 23.3843 11.5768 23.0793C11.3576 22.7742 10.9662 22.2189 10.7079 21.8278C10.4496 21.4446 10.0034 20.725 9.72157 20.2478C9.43194 19.7629 8.95445 18.879 8.65699 18.2924C8.36736 17.698 7.95249 16.7907 7.74897 16.2744C7.53762 15.7582 7.27147 14.9838 7.14623 14.5536C7.02881 14.1235 6.92705 13.5759 6.92705 13.3413C6.92705 12.9971 6.95836 12.8798 7.09926 12.7468Z" fill="#EEEEEE"/>
</svg>
