<svg width="171" height="42" viewBox="0 0 171 42" fill="none" xmlns="http://www.w3.org/2000/svg">
<path d="M21.38 11.1H39.74L40.58 12.9C41.7 15.42 42.26 18.12 42.26 21C42.26 23.88 41.72 26.6 40.64 29.16C39.6 31.68 38.14 33.9 36.26 35.82C34.38 37.7 32.18 39.2 29.66 40.32C27.18 41.4 24.5 41.96 21.62 42C18.74 42 16.02 41.46 13.46 40.38C10.9 39.3 8.66 37.82 6.74 35.94C4.86 34.06 3.36 31.86 2.24 29.34C1.16 26.82 0.62 24.12 0.62 21.24C0.62 18.36 1.14 15.66 2.18 13.14C3.26 10.62 4.74 8.42 6.62 6.54C8.5 4.62 10.7 3.1 13.22 1.98C15.78 0.859997 18.5 0.299997 21.38 0.299997V9C17.94 9 15.06 10.2 12.74 12.6C10.38 14.96 9.2 17.84 9.2 21.24C9.2 22.92 9.52 24.5 10.16 25.98C10.8 27.46 11.7 28.78 12.86 29.94C14.02 31.1 15.32 31.98 16.76 32.58C18.24 33.18 19.8 33.48 21.44 33.48C23.2 33.44 24.82 33.12 26.3 32.52C27.78 31.92 29.06 31.04 30.14 29.88C31.3 28.72 32.18 27.4 32.78 25.92C33.38 24.44 33.68 22.86 33.68 21.18C33.68 20.7 33.64 20.2 33.56 19.68H21.38V11.1ZM56.7167 0.299997H65.6567L81.9167 35.94V42H75.0767L70.2767 31.26H52.0367L47.2967 42H40.4567V35.94L56.7167 0.299997ZM61.2167 10.8L55.9367 22.68H66.4967L61.2167 10.8ZM125.978 42H117.398L92.9778 13.44V42H84.3978V0.299997H92.9778L117.398 28.86V0.299997H125.978V42ZM149.7 11.1H168.06L168.9 12.9C170.02 15.42 170.58 18.12 170.58 21C170.58 23.88 170.04 26.6 168.96 29.16C167.92 31.68 166.46 33.9 164.58 35.82C162.7 37.7 160.5 39.2 157.98 40.32C155.5 41.4 152.82 41.96 149.94 42C147.06 42 144.34 41.46 141.78 40.38C139.22 39.3 136.98 37.82 135.06 35.94C133.18 34.06 131.68 31.86 130.56 29.34C129.48 26.82 128.94 24.12 128.94 21.24C128.94 18.36 129.46 15.66 130.5 13.14C131.58 10.62 133.06 8.42 134.94 6.54C136.82 4.62 139.02 3.1 141.54 1.98C144.1 0.859997 146.82 0.299997 149.7 0.299997V9C146.26 9 143.38 10.2 141.06 12.6C138.7 14.96 137.52 17.84 137.52 21.24C137.52 22.92 137.84 24.5 138.48 25.98C139.12 27.46 140.02 28.78 141.18 29.94C142.34 31.1 143.64 31.98 145.08 32.58C146.56 33.18 148.12 33.48 149.76 33.48C151.52 33.44 153.14 33.12 154.62 32.52C156.1 31.92 157.38 31.04 158.46 29.88C159.62 28.72 160.5 27.4 161.1 25.92C161.7 24.44 162 22.86 162 21.18C162 20.7 161.96 20.2 161.88 19.68H149.7V11.1Z" fill="#E1E1E1"/>
</svg>
