<svg width="56" height="56" viewBox="0 0 56 56" fill="none" xmlns="http://www.w3.org/2000/svg">
<g clip-path="url(#clip0_3211_12399)">
<g filter="url(#filter0_i_3211_12399)">
<circle cx="28" cy="28" r="28" fill="white"/>
</g>
<g clip-path="url(#clip1_3211_12399)">
<path d="M30.3208 15.3437C32.3028 14.517 34.4592 14.667 36.5385 14.6957C38.1572 14.6957 39.7102 15.2607 41.2174 15.8672C41.2346 16.18 41.2632 16.8088 41.2775 17.1248C40.7598 17.0035 40.2478 16.879 39.736 16.7513C36.9847 15.9852 33.933 15.9788 31.3847 17.511C28.7993 18.9442 27.1261 21.7917 26.0937 24.7123C25.3215 26.851 25.3902 29.1972 24.9297 31.4157C24.6409 32.8618 23.8029 34.046 23.0107 35.1952C20.9457 34.5216 18.7378 33.8736 16.5985 34.5153C13.2723 35.4314 10.6498 38.0967 7.53516 39.5555C8.27304 38.2308 9.42274 37.3083 10.4437 36.2772C11.8938 34.812 13.4382 33.4458 14.7023 31.7699C16.7157 29.3024 18.3431 26.487 20.2708 23.9397C23.0107 20.3231 26.274 16.9873 30.321 15.3435L30.3208 15.3437Z" fill="#101010"/>
<path d="M31.3839 17.5112C33.9321 15.9789 36.9838 15.9854 39.7351 16.7514C38.9372 17.3899 38.0077 17.9995 37.6416 19.0753C36.5606 22.0822 37.3842 25.4116 36.6434 28.4919C36.2888 29.9539 35.7826 31.4254 34.8759 32.5746C33.5232 34.0557 31.9415 35.3836 30.0654 35.872C27.929 36.4848 25.7468 35.7826 23.6418 35.3421C23.4845 35.307 23.1699 35.2304 23.0098 35.1952C23.802 34.0461 24.64 32.8619 24.9288 31.4158C25.3893 29.1973 25.3206 26.8512 26.0928 24.7124C27.1252 21.7917 28.7984 18.9444 31.3839 17.5112Z" fill="#C83540"/>
<path d="M30.068 35.8721C31.9442 35.3837 33.5257 34.0557 34.8785 32.5747C33.2398 35.3359 30.2596 36.6829 27.3711 36.7595C28.0432 38.2024 28.4779 39.808 29.3731 41.104C30.7116 41.9531 32.5391 40.9922 33.8233 41.9084C32.176 42.0169 30.5257 41.9084 28.8784 41.9275C28.1405 40.1112 27.6715 38.1194 26.659 36.4627C25.6923 35.9711 24.6313 35.7732 23.6445 35.3423C25.7495 35.7828 27.9317 36.4851 30.0681 35.8722L30.068 35.8721Z" fill="#101010"/>
</g>
</g>
<defs>
<filter id="filter0_i_3211_12399" x="0" y="0" width="56" height="56" filterUnits="userSpaceOnUse" color-interpolation-filters="sRGB">
<feFlood flood-opacity="0" result="BackgroundImageFix"/>
<feBlend mode="normal" in="SourceGraphic" in2="BackgroundImageFix" result="shape"/>
<feColorMatrix in="SourceAlpha" type="matrix" values="0 0 0 0 0 0 0 0 0 0 0 0 0 0 0 0 0 0 127 0" result="hardAlpha"/>
<feOffset/>
<feGaussianBlur stdDeviation="3.5"/>
<feComposite in2="hardAlpha" operator="arithmetic" k2="-1" k3="1"/>
<feColorMatrix type="matrix" values="0 0 0 0 0 0 0 0 0 0 0 0 0 0 0 0 0 0 0.8 0"/>
<feBlend mode="normal" in2="shape" result="effect1_innerShadow_3211_12399"/>
</filter>
<clipPath id="clip0_3211_12399">
<rect width="56" height="56" fill="white"/>
</clipPath>
<clipPath id="clip1_3211_12399">
<rect width="33.7423" height="27.2904" fill="white" transform="translate(7.53516 14.6667)"/>
</clipPath>
</defs>
</svg>
