<svg width="40" height="40" viewBox="0 0 40 40" fill="none" xmlns="http://www.w3.org/2000/svg">
<g clip-path="url(#clip0_3517_488)">
<path fill-rule="evenodd" clip-rule="evenodd" d="M11.2329 0.0440877C10.6536 0.0831961 9.6908 0.161413 9.09589 0.231808C8.50881 0.302203 7.67906 0.42735 7.26419 0.521211C6.84149 0.615071 6.27006 0.755861 5.98826 0.8419C5.70646 0.927938 5.16634 1.14695 4.77495 1.33467C4.38356 1.52239 3.84344 1.84308 3.56164 2.06208C3.27984 2.27327 2.84149 2.67217 2.58317 2.94593C2.32485 3.21969 1.9726 3.65771 1.80039 3.91582C1.63601 4.17394 1.35421 4.69799 1.182 5.08908C1.01761 5.48016 0.782779 6.18411 0.657534 6.65341C0.540117 7.12271 0.391389 7.88142 0.320939 8.33508C0.258317 8.78873 0.156556 9.64912 0.101761 10.2514C0.0234834 11.0648 0 13.5756 0 19.9894C0 26.4032 0.0234834 28.9139 0.101761 29.7274C0.156556 30.3297 0.258317 31.19 0.320939 31.6437C0.391389 32.0974 0.540117 32.8482 0.657534 33.3254C0.782779 33.8025 1.01761 34.5064 1.182 34.8897C1.35421 35.273 1.62818 35.8048 1.80039 36.063C1.96477 36.3211 2.40313 36.8295 2.77886 37.1971C3.14677 37.5725 3.65558 38.0106 3.91389 38.1748C4.17221 38.3469 4.69667 38.6206 5.08806 38.7927C5.47945 38.957 6.19961 39.1995 6.69276 39.3246C7.18591 39.4497 8.12524 39.614 8.76712 39.7C9.41683 39.7861 10.6771 39.8878 11.5851 39.9425C12.681 39.9973 15.8513 40.0129 21.135 39.9894C26.2231 39.966 29.3464 39.9269 29.9022 39.8643C30.3796 39.8174 31.1468 39.7235 31.6243 39.6531C32.1018 39.5827 32.8689 39.4341 33.3464 39.309C33.8239 39.1916 34.5284 38.957 34.9119 38.7849C35.2955 38.6206 35.8278 38.3469 36.0861 38.1748C36.3444 38.0106 36.8532 37.5725 37.2211 37.1971C37.5969 36.8295 38.0352 36.3211 38.1996 36.063C38.3718 35.8048 38.6458 35.273 38.818 34.8897C38.9824 34.5064 39.2172 33.8025 39.3425 33.3254C39.4599 32.8482 39.6086 32.0974 39.6791 31.6437C39.7417 31.19 39.8434 30.3297 39.8982 29.7274C39.9765 28.9139 40 26.4032 40 19.9894C40 13.5756 39.9765 11.0648 39.8982 10.2514C39.8434 9.64912 39.7417 8.78873 39.6791 8.33508C39.6086 7.88142 39.4599 7.12271 39.3425 6.65341C39.2172 6.18411 38.9824 5.48016 38.818 5.08908C38.6458 4.69799 38.364 4.17394 38.1996 3.91582C38.0274 3.65771 37.6204 3.17276 37.2994 2.82861C36.9785 2.49228 36.4697 2.05426 36.1644 1.85872C35.8591 1.65536 35.2955 1.35813 34.9119 1.18605C34.5284 1.0218 33.8239 0.779326 33.3464 0.662001C32.8689 0.544676 32.1018 0.388242 31.6243 0.325668C31.1468 0.255273 30.3796 0.161413 29.9022 0.114483C29.3307 0.0519094 26.1996 0.012801 20.6654 0.00497928C16.0626 -0.0106641 11.8121 0.012801 11.2329 0.0440877ZM7.09995 12.7469C7.20171 12.653 7.33478 12.5592 7.3974 12.5357C7.46002 12.5122 8.32108 12.4888 9.31521 12.4888C10.8808 12.4809 11.1469 12.4966 11.3817 12.6217C11.5305 12.6921 11.7183 12.8407 11.7966 12.9502C11.8749 13.0597 12.1254 13.6386 12.3602 14.2408C12.5872 14.8431 12.9473 15.7035 13.143 16.1571C13.3465 16.6108 13.7223 17.3617 13.9884 17.8388C14.2467 18.3159 14.6929 19.0512 14.9747 19.4814C15.2643 19.9115 15.734 20.4982 16.0315 20.7954C16.3211 21.0848 16.6342 21.3429 16.736 21.3664C16.8299 21.3898 17.0021 21.3898 17.1273 21.3664C17.2917 21.3273 17.3544 21.2491 17.4248 21.0301C17.4796 20.8345 17.4953 19.802 17.4796 17.9952C17.4561 15.6878 17.4248 15.2029 17.3152 14.9057C17.2448 14.7101 17.0099 14.3034 16.7907 14.0062C16.5716 13.7089 16.3759 13.3883 16.3524 13.3022C16.3211 13.2162 16.3524 13.0441 16.4072 12.9111C16.4698 12.786 16.6029 12.6374 16.7125 12.5826C16.8612 12.5122 17.55 12.4809 19.3896 12.4809C20.869 12.4809 21.9571 12.5122 22.0745 12.5592C22.1841 12.6061 22.325 12.7625 22.3876 12.9111C22.4894 13.138 22.505 13.7168 22.505 16.3918C22.505 18.4958 22.5363 19.6691 22.5911 19.8177C22.6381 19.935 22.7164 20.0523 22.7634 20.0836C22.8181 20.1149 22.9434 20.1462 23.053 20.1462C23.1626 20.1462 23.3583 20.0836 23.4835 20.0054C23.6088 19.9194 23.914 19.6691 24.1489 19.4344C24.3837 19.1998 24.7907 18.7305 25.0491 18.3863C25.3074 18.0422 25.7301 17.4243 25.9884 17.0175C26.2467 16.6108 26.8416 15.5001 27.3191 14.5537C28.1567 12.8798 28.188 12.8251 28.5324 12.653C28.8769 12.4809 28.9395 12.4731 32.6968 12.5201L32.8925 12.7547C33.0647 12.9581 33.0882 13.0363 33.0412 13.3257C33.0178 13.5056 32.8925 13.9123 32.7594 14.2252C32.6342 14.5302 32.2741 15.2264 31.9688 15.7661C31.6635 16.3057 30.8338 17.612 30.1293 18.6835C29.4248 19.7473 28.8221 20.6937 28.7986 20.7954C28.7751 20.8893 28.8142 21.1004 28.8925 21.2725C28.9786 21.4446 29.3152 21.8435 29.6518 22.172C29.9884 22.5005 30.6851 23.2436 31.1939 23.8224C31.7105 24.4012 32.3367 25.1599 32.6029 25.5041C32.8612 25.8482 33.19 26.3566 33.3309 26.6382C33.5109 26.998 33.5814 27.2561 33.5814 27.5221C33.5814 27.8349 33.55 27.9288 33.3857 28.0539C33.2761 28.14 33.0647 28.2416 32.916 28.2886C32.7673 28.3277 31.9454 28.359 31.0921 28.359C30.2154 28.359 29.3935 28.3199 29.1821 28.2729C28.8377 28.1869 28.6655 28.0461 27.0843 26.4348C26.1371 25.4806 25.1665 24.5498 24.9317 24.3621C24.6968 24.1822 24.2898 23.9319 24.0315 23.8146C23.7653 23.6816 23.4209 23.5877 23.2487 23.5877C23.053 23.5799 22.8651 23.6347 22.5442 23.885L22.4659 27.7489L22.2467 27.9366C22.1293 28.0383 21.8866 28.1634 21.7066 28.2182C21.5187 28.2651 20.9317 28.3042 20.3915 28.3042C19.7105 28.2964 19.1939 28.2495 18.7086 28.14C18.325 28.0539 17.6675 27.8584 17.2604 27.6941C16.8534 27.5377 16.2193 27.2405 15.8514 27.0293C15.4835 26.8181 14.9356 26.4661 14.6381 26.2393C14.3407 26.0125 13.871 25.637 13.597 25.3946C13.3309 25.1521 12.8534 24.6593 12.5403 24.2917C12.2271 23.9241 11.7888 23.3844 11.5774 23.0793C11.3583 22.7743 10.9669 22.2189 10.7086 21.8279C10.4502 21.4446 10.0041 20.725 9.72226 20.2479C9.43263 19.7629 8.95513 18.8791 8.65768 18.2925C8.36805 17.698 7.95318 16.7907 7.74965 16.2745C7.5383 15.7582 7.27216 14.9839 7.14691 14.5537C7.0295 14.1235 6.92773 13.576 6.92773 13.3413C6.92773 12.9972 6.95905 12.8799 7.09995 12.7469Z" fill="#101010"/>
</g>
<defs>
<clipPath id="clip0_3517_488">
<rect width="40" height="40" fill="white"/>
</clipPath>
</defs>
</svg>
